<?xml version="1.0" encoding="utf-8"?>
<!-- Generator: Adobe Illustrator 15.1.0, SVG Export Plug-In . SVG Version: 6.00 Build 0)  -->
<!DOCTYPE svg PUBLIC "-//W3C//DTD SVG 1.1//EN" "http://www.w3.org/Graphics/SVG/1.1/DTD/svg11.dtd">
<svg version="1.1" id="Calque_1" xmlns="http://www.w3.org/2000/svg" xmlns:xlink="http://www.w3.org/1999/xlink" x="0px" y="0px"
	 width="20px" height="20px" viewBox="0 0 20 20" enable-background="new 0 0 20 20" xml:space="preserve">
<path fill="#FFFFFF" d="M8,0.5C8,0.224,7.776,0,7.5,0S7,0.224,7,0.5c0,1.306,0.252,2.397,0.455,3.274
	c0.198,0.854,0.353,1.529,0.13,1.811c-0.186,0.234-0.717,0.37-1.581,0.406C6.002,5.829,6,5.665,6,5.501v-4
	c0-0.276-0.224-0.5-0.5-0.5S5,1.225,5,1.501v4c0,0.165-0.001,0.328-0.004,0.49C4.135,5.954,3.605,5.817,3.419,5.583
	C3.194,5.3,3.35,4.624,3.547,3.769C3.749,2.894,4,1.804,4,0.502c0-0.276-0.224-0.5-0.5-0.5S3,0.226,3,0.502
	c0,1.189-0.237,2.217-0.427,3.043C2.315,4.663,2.112,5.547,2.637,6.207c0.39,0.49,1.101,0.733,2.333,0.785
	c-0.112,2.79-0.516,5.189-0.851,7.177c-0.446,2.644-0.74,4.39,0.012,5.278c0.311,0.369,0.772,0.556,1.37,0.556
	s1.059-0.187,1.37-0.556c0.752-0.889,0.458-2.637,0.012-5.283C6.549,12.18,6.145,9.78,6.032,6.992
	C7.267,6.942,7.978,6.7,8.369,6.209C8.893,5.55,8.689,4.668,8.431,3.55C8.24,2.723,8.002,1.693,8.002,0.502L8,0.5z M6.106,18.799
	C6.033,18.885,5.891,19,5.5,19s-0.533-0.113-0.606-0.2c-0.452-0.534-0.145-2.356,0.211-4.467c0.129-0.763,0.267-1.585,0.396-2.467
	c0.129,0.881,0.267,1.7,0.395,2.463c0.356,2.112,0.663,3.937,0.211,4.472L6.106,18.799z"/>
<path fill="#FFFFFF" d="M15.882,14.162C15.488,11.831,15.001,8.931,15,5.5v-5c0-0.227-0.152-0.425-0.372-0.483
	c-0.219-0.058-0.45,0.038-0.562,0.235c-2.02,3.534-3.017,8.931-3.059,9.159c-0.027,0.146,0.014,0.296,0.108,0.41
	c0.095,0.114,0.235,0.18,0.384,0.18h2.234c-0.174,1.544-0.408,2.935-0.616,4.166c-0.446,2.644-0.74,4.39,0.012,5.278
	c0.312,0.369,0.772,0.556,1.37,0.556s1.059-0.187,1.37-0.556C16.622,18.557,16.328,16.809,15.882,14.162z M12.111,9
	C12.359,7.829,12.993,5.113,14,2.683V5.5c0,1.236-0.063,2.403-0.163,3.5h-1.728H12.111z M15.105,18.799
	C15.033,18.885,14.891,19,14.5,19s-0.533-0.113-0.605-0.2c-0.453-0.534-0.146-2.356,0.211-4.467
	c0.129-0.763,0.267-1.585,0.396-2.467c0.129,0.881,0.267,1.702,0.396,2.463c0.355,2.112,0.662,3.937,0.211,4.472L15.105,18.799z"/>
</svg>
